<svg height="240px" viewBox="0 0 400 240" width="400px" xmlns="http://www.w3.org/2000/svg" xmlns:xlink="http://www.w3.org/1999/xlink">

<desc>Produced by GNUPLOT 4.4 patchlevel 3 </desc>

<defs>

	<circle id="gpDot" r="0.5" stroke-width="0.5"/>
	<path d="M-1,0 h2 M0,-1 v2" id="gpPt0" stroke="currentColor" stroke-width="0.222"/>
	<path d="M-1,-1 L1,1 M1,-1 L-1,1" id="gpPt1" stroke="currentColor" stroke-width="0.222"/>
	<path d="M-1,0 L1,0 M0,-1 L0,1 M-1,-1 L1,1 M-1,1 L1,-1" id="gpPt2" stroke="currentColor" stroke-width="0.222"/>
	<rect height="2" id="gpPt3" stroke="currentColor" stroke-width="0.222" width="2" x="-1" y="-1"/>
	<rect fill="currentColor" height="2" id="gpPt4" stroke="currentColor" stroke-width="0.222" width="2" x="-1" y="-1"/>
	<circle cx="0" cy="0" id="gpPt5" r="1" stroke="currentColor" stroke-width="0.222"/>
	<use fill="currentColor" id="gpPt6" stroke="none" xlink:href="#gpPt5"/>
	<path d="M0,-1.33 L-1.33,0.67 L1.33,0.67 z" id="gpPt7" stroke="currentColor" stroke-width="0.222"/>
	<use fill="currentColor" id="gpPt8" stroke="none" xlink:href="#gpPt7"/>
	<use id="gpPt9" stroke="currentColor" transform="rotate(180)" xlink:href="#gpPt7"/>
	<use fill="currentColor" id="gpPt10" stroke="none" xlink:href="#gpPt9"/>
	<use id="gpPt11" stroke="currentColor" transform="rotate(45)" xlink:href="#gpPt3"/>
	<use fill="currentColor" id="gpPt12" stroke="none" xlink:href="#gpPt11"/>
</defs>
<g style="fill:none; color:white; stroke:currentColor; stroke-width:1.00; stroke-linecap:butt; stroke-linejoin:miter">
</g>
<g style="fill:none; color:white; stroke:currentColor; stroke-width:0.50; stroke-linecap:butt; stroke-linejoin:miter">
</g>
<g style="fill:none; color:black; stroke:currentColor; stroke-width:0.50; stroke-linecap:butt; stroke-linejoin:miter">
	<path d="M52.0,213.6 L64.5,213.6 M361.9,213.6 L349.4,213.6 "/>
	<g style="stroke:none; fill:rgb(0,0,0); font-family:Arial; font-size:12.00pt; text-anchor:end" transform="translate(43.7,218.1)">
		<text><tspan>6</tspan>
		</text>
	</g>
	<path d="M52.0,185.7 L64.5,185.7 M361.9,185.7 L349.4,185.7 "/>
	<g style="stroke:none; fill:rgb(0,0,0); font-family:Arial; font-size:12.00pt; text-anchor:end" transform="translate(43.7,190.2)">
		<text><tspan>6.5</tspan>
		</text>
	</g>
	<path d="M52.0,157.7 L64.5,157.7 M361.9,157.7 L349.4,157.7 "/>
	<g style="stroke:none; fill:rgb(0,0,0); font-family:Arial; font-size:12.00pt; text-anchor:end" transform="translate(43.7,162.2)">
		<text><tspan>7</tspan>
		</text>
	</g>
	<path d="M52.0,129.8 L64.5,129.8 M361.9,129.8 L349.4,129.8 "/>
	<g style="stroke:none; fill:rgb(0,0,0); font-family:Arial; font-size:12.00pt; text-anchor:end" transform="translate(43.7,134.3)">
		<text><tspan>7.5</tspan>
		</text>
	</g>
	<path d="M52.0,101.9 L64.5,101.9 M361.9,101.9 L349.4,101.9 "/>
	<g style="stroke:none; fill:rgb(0,0,0); font-family:Arial; font-size:12.00pt; text-anchor:end" transform="translate(43.7,106.4)">
		<text><tspan>8</tspan>
		</text>
	</g>
	<path d="M52.0,74.0 L64.5,74.0 M361.9,74.0 L349.4,74.0 "/>
	<g style="stroke:none; fill:rgb(0,0,0); font-family:Arial; font-size:12.00pt; text-anchor:end" transform="translate(43.7,78.5)">
		<text><tspan>8.5</tspan>
		</text>
	</g>
	<path d="M52.0,46.0 L64.5,46.0 M361.9,46.0 L349.4,46.0 "/>
	<g style="stroke:none; fill:rgb(0,0,0); font-family:Arial; font-size:12.00pt; text-anchor:end" transform="translate(43.7,50.5)">
		<text><tspan>9</tspan>
		</text>
	</g>
	<path d="M52.0,18.1 L64.5,18.1 M361.9,18.1 L349.4,18.1 "/>
	<g style="stroke:none; fill:rgb(0,0,0); font-family:Arial; font-size:12.00pt; text-anchor:end" transform="translate(43.7,22.6)">
		<text><tspan>9.5</tspan>
		</text>
	</g>
	<path d="M52.0,213.6 L52.0,201.1 M52.0,18.1 L52.0,30.6 "/>
	<g style="stroke:none; fill:rgb(0,0,0); font-family:Arial; font-size:12.00pt; text-anchor:middle" transform="translate(52.0,236.1)">
		<text><tspan>0</tspan>
		</text>
	</g>
	<path d="M114.0,213.6 L114.0,201.1 M114.0,18.1 L114.0,30.6 "/>
	<g style="stroke:none; fill:rgb(0,0,0); font-family:Arial; font-size:12.00pt; text-anchor:middle" transform="translate(114.0,236.1)">
		<text><tspan>0.2</tspan>
		</text>
	</g>
	<path d="M176.0,213.6 L176.0,201.1 M176.0,18.1 L176.0,30.6 "/>
	<g style="stroke:none; fill:rgb(0,0,0); font-family:Arial; font-size:12.00pt; text-anchor:middle" transform="translate(176.0,236.1)">
		<text><tspan>0.4</tspan>
		</text>
	</g>
	<path d="M237.9,213.6 L237.9,201.1 M237.9,18.1 L237.9,30.6 "/>
	<g style="stroke:none; fill:rgb(0,0,0); font-family:Arial; font-size:12.00pt; text-anchor:middle" transform="translate(237.9,236.1)">
		<text><tspan>0.6</tspan>
		</text>
	</g>
	<path d="M299.9,213.6 L299.9,201.1 M299.9,18.1 L299.9,30.6 "/>
	<g style="stroke:none; fill:rgb(0,0,0); font-family:Arial; font-size:12.00pt; text-anchor:middle" transform="translate(299.9,236.1)">
		<text><tspan>0.8</tspan>
		</text>
	</g>
	<path d="M361.9,213.6 L361.9,201.1 M361.9,18.1 L361.9,30.6 "/>
	<g style="stroke:none; fill:rgb(0,0,0); font-family:Arial; font-size:12.00pt; text-anchor:middle" transform="translate(361.9,236.1)">
		<text><tspan>1</tspan>
		</text>
	</g>
	<path d="M52.0,18.1 L52.0,213.6 L361.9,213.6 L361.9,18.1 L52.0,18.1 Z "/>
</g>
	<a xlink:title="Plot #1">
<g style="fill:none; color:red; stroke:currentColor; stroke-width:0.50; stroke-linecap:butt; stroke-linejoin:miter">
	<path d="M52.0,101.9 L55.1,102.0 L58.2,102.2 L61.3,102.5 L64.4,102.8 L67.5,103.3 L70.6,103.9 L73.7,104.5    L76.8,105.2 L79.9,106.1 L83.0,107.0 L86.1,108.0 L89.2,109.1 L92.3,110.3 L95.4,111.6 L98.5,112.9    L101.6,114.4 L104.7,115.9 L107.8,117.5 L110.9,119.2 L114.0,120.9 L117.1,122.8 L120.2,124.7 L123.3,126.6    L126.4,128.7 L129.5,130.8 L132.6,132.9 L135.7,135.2 L138.8,137.4 L141.9,139.8 L145.0,142.1 L148.1,144.5    L151.2,147.0 L154.3,149.5 L157.4,152.0 L160.5,154.5 L163.6,157.1 L166.7,159.6 L169.8,162.2 L172.9,164.8    L176.0,167.4 L179.1,170.0 L182.2,172.5 L185.3,175.1 L188.4,177.6 L191.5,180.1 L194.6,182.6 L197.7,185.0    L200.8,187.4 L203.9,189.7 L207.0,192.0 L210.0,194.1 L213.1,196.2 L216.2,198.3 L219.3,200.2 L222.4,202.0    L225.5,203.8 L228.6,205.4 L231.7,206.8 L234.8,208.2 L237.9,209.4 L241.0,210.5 L244.1,211.4 L247.2,212.1    L250.3,212.6 L253.4,213.0 L256.5,213.2 L259.6,213.2 L262.7,212.9 L265.8,212.4 L268.9,211.7 L272.0,210.8    L275.1,209.5 L278.2,208.1 L281.3,206.3 L284.4,204.3 L287.5,201.9 L290.6,199.3 L293.7,196.3 L296.8,193.0    L299.9,189.3 L303.0,185.3 L306.1,180.9 L309.2,176.1 L312.3,170.9 L315.4,165.4 L318.5,159.4 L321.6,152.9    L324.7,146.0 L327.8,138.7 L330.9,130.9 L334.0,122.6 L337.1,113.8 L340.2,104.5 L343.3,94.6 L346.4,84.3    L349.5,73.3 L352.6,61.8 L355.7,49.7 L358.8,37.0 L361.9,23.7 " stroke="rgb(  0,   0, 255)"/>
</g>
	</a>
<g style="fill:none; color:black; stroke:currentColor; stroke-width:0.50; stroke-linecap:butt; stroke-linejoin:miter">
</g>
</svg>